<svg xmlns="http://www.w3.org/2000/svg" fill="none" viewBox="0 0 24 24" stroke="currentColor" stroke-width="1.5" stroke-linecap="round" stroke-linejoin="round">
  <path d="M8 12.5c1.5 0 2.5 1.5 2.5 3.5S9.4 20 8 20s-2.5-1.8-2.5-4 1-3.5 2.5-3.5Z"/>
  <path d="M15.5 6.5c1.4 0 2.5 1.6 2.5 3.7 0 2.2-1.1 3.8-2.5 3.8S13 12.4 13 10.2c0-2.1 1.1-3.7 2.5-3.7Z"/>
  <circle cx="6.3" cy="10.2" r="0.8"/>
  <circle cx="7.9" cy="8.7" r="0.8"/>
  <circle cx="9.8" cy="8.2" r="0.75"/>
  <circle cx="14.1" cy="4.5" r="0.8"/>
  <circle cx="15.8" cy="3.3" r="0.8"/>
  <circle cx="17.8" cy="3.1" r="0.75"/>
</svg>
